<?xml version="1.0" encoding="utf-8"?>
<!-- Generator: Adobe Illustrator 19.2.1, SVG Export Plug-In . SVG Version: 6.00 Build 0)  -->
<svg version="1.1" id="Слой_1" xmlns="http://www.w3.org/2000/svg" xmlns:xlink="http://www.w3.org/1999/xlink" x="0px" y="0px"
	 viewBox="0 0 796.7 73.9" style="enable-background:new 0 0 796.7 73.9;" xml:space="preserve">
<g>
	<path d="M20,44.4h-4.2v15.2h-11V19h11v15.5h3.3L28.4,19h13.9L28.8,37.8l14.7,21.8H28.9L20,44.4z"/>
	<path d="M45.6,38.9c0-6.1,1.7-11,5.1-14.9c3.4-3.9,8.1-5.8,14.1-5.8c6,0,10.7,1.9,14.1,5.8c3.4,3.9,5.1,8.8,5.1,14.9v0.8
		c0,6.1-1.7,11.1-5.1,14.9s-8.1,5.8-14.1,5.8c-6,0-10.7-1.9-14.1-5.8s-5.1-8.8-5.1-14.9V38.9z M56.5,39.7c0,3.7,0.7,6.7,2,8.9
		c1.3,2.2,3.4,3.4,6.3,3.4c2.8,0,4.9-1.1,6.2-3.4c1.3-2.3,2-5.2,2-8.9v-0.8c0-3.6-0.7-6.6-2-8.8c-1.3-2.3-3.4-3.4-6.3-3.4
		c-2.8,0-4.9,1.1-6.2,3.4c-1.3,2.3-2,5.2-2,8.8V39.7z"/>
	<path d="M115.3,46.9h0.2L126.1,19h13.7v40.7h-10.9V35.3l-0.2,0l-9.4,24.3h-7.4l-9.2-23.8l-0.2,0v23.8h-11V19H105L115.3,46.9z"/>
	<path d="M184.5,59.6h-11V27.5h-13.5v32.2h-11V19h35.4V59.6z"/>
	<path d="M228,19v40.7h-10.9V27.5h-9.8v8.8c0,8-1.2,13.9-3.7,17.7c-2.5,3.8-6.7,5.7-12.6,5.7h-1.8l-0.1-8.6l1.2,0
		c2.5,0,4.1-1,4.9-3.1c0.8-2.1,1.1-5.9,1.1-11.6V19H228z"/>
	<path d="M253.6,60.4c-6.1,0-10.8-1.9-14.2-5.6c-3.4-3.7-5.1-8.5-5.1-14.4V39c0-6.1,1.7-11.1,5-15c3.3-3.9,7.9-5.8,13.6-5.8
		c5.5,0,9.7,1.7,12.6,5c2.9,3.3,4.4,7.9,4.4,13.5v5.7h-24.3l-0.1,0.2c0.2,2.8,1,5,2.5,6.8s3.8,2.6,6.7,2.6c2.5,0,4.5-0.3,6.3-0.8
		c1.7-0.5,3.5-1.3,5.3-2.3l3,6.8c-1.6,1.3-3.8,2.4-6.6,3.3S256.9,60.4,253.6,60.4z M252.9,26.7c-2.2,0-3.9,0.8-5.1,2.3
		s-1.9,3.5-2.2,6l0.1,0.2h13.4v-0.8c0-2.4-0.5-4.3-1.5-5.6S255.1,26.7,252.9,26.7z"/>
	<path d="M292.1,44.4h-4.2v15.2h-11V19h11v15.5h3.3l9.3-15.5h13.9l-13.5,18.9l14.7,21.8h-14.6L292.1,44.4z"/>
	<path d="M336.5,52c1.9,0,3.4-0.6,4.5-1.7s1.7-2.7,1.7-4.6h10l0.1,0.2c0.1,4.1-1.4,7.6-4.6,10.3c-3.2,2.8-7.1,4.2-11.7,4.2
		c-6,0-10.7-1.9-13.9-5.8c-3.3-3.8-4.9-8.8-4.9-14.8v-1.1c0-6,1.6-10.9,4.9-14.8c3.3-3.9,7.9-5.8,13.9-5.8c5,0,9,1.4,12,4.3
		c3,2.9,4.5,6.6,4.4,11.3l-0.1,0.2h-10c0-2.1-0.6-3.9-1.7-5.2c-1.1-1.4-2.7-2.1-4.6-2.1c-2.8,0-4.8,1.1-6,3.4
		c-1.2,2.3-1.8,5.2-1.8,8.7v1.1c0,3.6,0.6,6.5,1.8,8.8C331.6,50.9,333.6,52,336.5,52z"/>
	<path d="M394.4,59.6h-11V43.8H370v15.8h-11V19h11v16.5h13.4V19h11V59.6z"/>
	<path d="M415.1,32.1h7.6c5.5,0,9.8,1.3,12.9,3.8c3.1,2.5,4.7,5.8,4.7,9.9c0,4.1-1.6,7.5-4.7,10c-3.1,2.5-7.4,3.8-12.9,3.8h-18.6V19
		h11V32.1z M415.1,40.5v10.7h7.6c2.2,0,3.9-0.5,5-1.5c1.1-1,1.7-2.3,1.7-3.9c0-1.5-0.6-2.8-1.7-3.8c-1.1-1-2.8-1.5-5-1.5H415.1z
		 M455.1,59.6h-11V19h11V59.6z"/>
	<path d="M491,19h10.9v40.7H491V34.8l-0.2,0l-13.3,24.9h-11V19h11v24.7l0.2,0L491,19z M497,1.2l0.1,0.2c0.1,3.2-1,5.8-3.3,7.8
		c-2.3,2-5.5,3-9.5,3c-4,0-7.2-1-9.5-3c-2.4-2-3.5-4.6-3.3-7.8l0.1-0.2h8c0,1.3,0.4,2.4,1.1,3.3c0.8,0.9,2,1.3,3.6,1.3
		c1.6,0,2.8-0.4,3.5-1.3c0.8-0.9,1.1-1.9,1.1-3.3H497z"/>
	<path d="M564.6,59.6h-11V27.5h-13.5v32.2h-11V19h35.4V59.6z"/>
	<path d="M571.1,38.9c0-6.1,1.7-11,5.1-14.9c3.4-3.9,8.1-5.8,14.1-5.8c6,0,10.7,1.9,14.1,5.8c3.4,3.9,5.1,8.8,5.1,14.9v0.8
		c0,6.1-1.7,11.1-5.1,14.9s-8.1,5.8-14.1,5.8c-6,0-10.7-1.9-14.1-5.8s-5.1-8.8-5.1-14.9V38.9z M582,39.7c0,3.7,0.7,6.7,2,8.9
		s3.4,3.4,6.3,3.4c2.8,0,4.9-1.1,6.2-3.4s2-5.2,2-8.9v-0.8c0-3.6-0.7-6.6-2-8.8c-1.3-2.3-3.4-3.4-6.3-3.4c-2.8,0-4.9,1.1-6.2,3.4
		c-1.3,2.3-2,5.2-2,8.8V39.7z"/>
	<path d="M617.4,51.2L617.4,51.2l1.2,0c2,0,3.4-1.2,4.2-3.6c0.8-2.4,1.4-6.4,1.6-12l0.8-16.7h30.1v32.3h5.6v21.9h-11V59.6h-24.2
		v13.5h-11V51.2H617.4z M635.3,35.6c-0.2,3.3-0.5,6.3-1,8.9c-0.5,2.6-1.1,4.8-1.9,6.7h12V27.7h-8.6L635.3,35.6z"/>
	<path d="M682.9,31.9h0.2l6.2-12.9h12.4l-12.3,20.1l12.7,20.6h-12.4l-6.7-13.5l-6.7,13.5h-12.4l12.7-20.6L664.5,19h12.3L682.9,31.9z
		"/>
	<path d="M704.5,38.9c0-6.1,1.7-11,5.1-14.9c3.4-3.9,8.1-5.8,14.1-5.8c6,0,10.7,1.9,14.1,5.8c3.4,3.9,5.1,8.8,5.1,14.9v0.8
		c0,6.1-1.7,11.1-5.1,14.9s-8.1,5.8-14.1,5.8c-6,0-10.7-1.9-14.1-5.8s-5.1-8.8-5.1-14.9V38.9z M715.4,39.7c0,3.7,0.7,6.7,2,8.9
		c1.3,2.2,3.4,3.4,6.3,3.4c2.8,0,4.9-1.1,6.2-3.4c1.3-2.3,2-5.2,2-8.9v-0.8c0-3.6-0.7-6.6-2-8.8c-1.3-2.3-3.4-3.4-6.3-3.4
		c-2.8,0-4.9,1.1-6.2,3.4c-1.3,2.3-2,5.2-2,8.8V39.7z"/>
	<path d="M750.8,51.2L750.8,51.2l1.2,0c2,0,3.4-1.2,4.2-3.6c0.8-2.4,1.4-6.4,1.6-12l0.8-16.7h30.1v32.3h5.6v21.9h-11V59.6h-24.2
		v13.5h-11V51.2H750.8z M768.7,35.6c-0.2,3.3-0.5,6.3-1,8.9c-0.5,2.6-1.1,4.8-1.9,6.7h12V27.7h-8.6L768.7,35.6z"/>
</g>
</svg>
