<?xml version="1.0" encoding="utf-8"?>
<!-- Generator: Adobe Illustrator 19.2.1, SVG Export Plug-In . SVG Version: 6.00 Build 0)  -->
<svg version="1.1" id="Слой_1" xmlns="http://www.w3.org/2000/svg" xmlns:xlink="http://www.w3.org/1999/xlink" x="0px" y="0px"
	 viewBox="0 0 743 206.3" style="enable-background:new 0 0 743 206.3;" xml:space="preserve">
<g>
	<path d="M154.6,203.7H124v-37.6H32v37.6H1.5v-61.1h8.9c8,0,13.7-5.3,17.2-16c3.5-10.6,5.8-27.6,6.8-50.8l3.5-62.6h98.6v129.3h18.2
		V203.7z M65.1,75.8c-0.7,14.8-2.3,27.7-4.8,38.8s-5.9,20.4-10.3,27.9h56V36.9H67.2L65.1,75.8z"/>
	<path d="M233.4,52.5h30.5v113.6h-30.5V96.8l-0.6-0.1l-37.1,69.4H165V52.5h30.7v69.1l0.6,0.1L233.4,52.5z"/>
	<path d="M334.8,98.3c5.9,0,10.5-1.1,13.6-3.3c3.1-2.2,4.7-5.3,4.7-9.2c0-3.6-1.5-6.6-4.5-9.2c-3-2.6-7.6-3.8-13.6-3.8
		c-5.6,0-10.1,1.1-13.5,3.4c-3.4,2.2-5.1,5.2-5.1,9h-29.5l-0.2-0.6c-0.4-10.1,3.9-18.4,12.9-24.6c9-6.3,20.3-9.4,33.9-9.4
		c15.3,0,27.5,2.9,36.6,8.7c9.1,5.8,13.6,13.9,13.6,24.4c0,5-1.7,9.7-5.1,13.9c-3.4,4.2-8.1,7.6-14,10.1c6.9,2.3,12.1,5.7,15.7,10.2
		c3.6,4.5,5.5,9.9,5.5,16.2c0,10.6-4.9,18.9-14.7,25c-9.8,6.1-22.4,9.2-37.7,9.2c-13.5,0-25.1-3-34.7-9c-9.7-6-14.3-14.7-13.9-26
		l0.2-0.6h29.5c0,3.8,1.8,7.1,5.4,9.7c3.6,2.6,8.6,3.9,15.2,3.9c6.4,0,11.3-1.4,14.9-4.1c3.5-2.8,5.3-6.1,5.3-10
		c0-4.8-1.8-8.4-5.3-10.7s-8.5-3.5-15.1-3.5h-18.5V98.3H334.8z"/>
	<path d="M473.6,166.1c-1.1-2.6-2.1-5.3-2.9-8.2c-0.8-2.9-1.4-5.8-1.7-8.8c-3.1,5.5-7.3,10.1-12.5,13.8c-5.2,3.6-11.3,5.5-18.5,5.5
		c-11.9,0-21.1-3.1-27.5-9.2c-6.4-6.1-9.7-14.5-9.7-25c0-11.1,4.3-19.8,12.9-25.9c8.6-6.1,21.1-9.2,37.5-9.2h17.2v-9
		c0-5.5-1.4-9.7-4.3-12.7c-2.9-3-7.1-4.5-12.8-4.5c-5,0-8.8,1.2-11.5,3.6c-2.7,2.4-4,5.7-4,9.9h-29.5l-0.2-0.6
		c-0.5-9.6,3.7-17.9,12.5-24.8c8.9-7,20.4-10.4,34.7-10.4c13.6,0,24.7,3.4,33.1,10.3c8.4,6.9,12.7,16.7,12.7,29.5v46.9
		c0,5.3,0.4,10.3,1.2,15c0.8,4.7,2.1,9.3,3.8,14H473.6z M445.5,145.6c5.3,0,10.1-1.3,14.3-4c4.2-2.7,7.1-5.7,8.6-9.2v-16.1h-17.2
		c-6.5,0-11.4,1.6-14.8,4.8c-3.3,3.2-5,7.2-5,11.9c0,3.8,1.2,6.9,3.7,9.2C437.7,144.5,441.1,145.6,445.5,145.6z"/>
	<path d="M589.9,52.5h30.5v113.6h-30.5V96.8l-0.6-0.1l-37.1,69.4h-30.7V52.5h30.7v69.1l0.6,0.1L589.9,52.5z M606.6,3.1l0.2,0.6
		c0.3,8.9-2.7,16.2-9.3,21.8c-6.5,5.6-15.3,8.5-26.4,8.5c-11.1,0-20-2.8-26.6-8.5c-6.6-5.6-9.7-12.9-9.2-21.8l0.2-0.6h22.4
		c0,3.7,1.1,6.8,3.2,9.1c2.1,2.4,5.5,3.6,10,3.6c4.4,0,7.7-1.2,9.8-3.6c2.1-2.4,3.2-5.4,3.2-9.1H606.6z"/>
	<path d="M741.6,166.1h-30.7V122h-37.4v44.1h-30.7V52.5h30.7v46h37.4v-46h30.7V166.1z"/>
</g>
</svg>
