<svg id="Слой_1" data-name="Слой 1" xmlns="http://www.w3.org/2000/svg" viewBox="0 0 740.11 200.62"><defs><style>.cls-1{fill:#1d1d1b;}</style></defs><title>design2</title><path class="cls-1" d="M154.64,203.67H124V166.08H32v37.58H1.47v-61.1h8.92q12,0,17.22-16T34.43,75.8L37.9,13.23h98.58V142.57h18.16v61.1ZM65.09,75.8a226,226,0,0,1-4.83,38.84Q56.48,131.34,50,142.57h56V36.85H67.19Z" transform="translate(-1.47 -3.05)"/><path class="cls-1" d="M233.37,52.5h30.55V166.08H233.37V96.8l-0.63-.1-37.06,69.39H165V52.5h30.65v69.08l0.63,0.1Z" transform="translate(-1.47 -3.05)"/><path class="cls-1" d="M334.78,98.27q8.92,0,13.6-3.31A10.63,10.63,0,0,0,353,85.77a11.67,11.67,0,0,0-4.52-9.19q-4.51-3.83-13.65-3.83-8.4,0-13.54,3.36a10.31,10.31,0,0,0-5.14,9H286.7l-0.21-.63Q285.86,69.29,299.4,59.9t33.91-9.4q23,0,36.64,8.66T383.6,83.57a21.75,21.75,0,0,1-5.09,13.91,35,35,0,0,1-14,10.13q10.29,3.46,15.75,10.18A24.83,24.83,0,0,1,385.7,134q0,15.85-14.7,25t-37.69,9.19q-20.26,0-34.75-9t-13.86-26l0.21-.63h29.5q0,5.77,5.35,9.71T335,146.14q9.55,0,14.85-4.15t5.3-10q0-7.24-5.25-10.71t-15.12-3.46H316.31V98.27h18.48Z" transform="translate(-1.47 -3.05)"/><path class="cls-1" d="M473.57,166.08a64.12,64.12,0,0,1-2.89-8.19,56.81,56.81,0,0,1-1.73-8.82,42,42,0,0,1-12.49,13.75A31.32,31.32,0,0,1,438,168.29q-17.85,0-27.5-9.19t-9.66-25q0-16.69,12.86-25.88T451.21,99h17.22V90q0-8.19-4.3-12.7t-12.81-4.51q-7.45,0-11.5,3.62t-4,9.92h-29.5l-0.21-.63q-0.74-14.38,12.55-24.83t34.7-10.45q20.47,0,33.12,10.29t12.65,29.5v46.93a88.66,88.66,0,0,0,1.21,15,75.14,75.14,0,0,0,3.83,14H473.57Zm-28-20.47a26.11,26.11,0,0,0,14.28-4q6.3-4,8.61-9.24V116.32H451.21q-9.76,0-14.75,4.83a15.87,15.87,0,0,0-5,11.86,11.84,11.84,0,0,0,3.73,9.19Q438.92,145.61,445.54,145.61Z" transform="translate(-1.47 -3.05)"/><path class="cls-1" d="M589.88,52.5h30.55V166.08H589.88V96.8l-0.63-.1L552.2,166.08H521.54V52.5H552.2v69.08l0.63,0.1ZM606.58,3.05l0.21,0.63Q607.31,17,597.5,25.46t-26.4,8.45q-16.69,0-26.56-8.45T535.29,3.68l0.21-.63h22.36a13.15,13.15,0,0,0,3.2,9.13q3.2,3.57,10,3.57,6.62,0,9.82-3.57a13.16,13.16,0,0,0,3.2-9.13h22.47Z" transform="translate(-1.47 -3.05)"/><path class="cls-1" d="M741.58,166.08H710.93V122H673.55v44.09H642.9V52.5h30.65v46h37.37v-46h30.65V166.08Z" transform="translate(-1.47 -3.05)"/></svg>